<svg xmlns="http://www.w3.org/2000/svg" version="1.1" viewBox="0.00 0.00 262.00 262.00"><path fill="currentColor" d=" M 106.80 198.21 C 94.96 213.34 82.80 225.79 65.23 232.93 Q 56.09 236.65 46.37 234.81 C 28.58 231.44 18.49 212.90 18.66 195.74 Q 18.86 175.55 20.45 111.49 C 20.81 96.95 20.61 84.85 19.63 71.50 C 19.14 64.80 18.33 56.62 14.62 50.84 Q 8.70 41.59 2.76 32.38 C 1.43 30.32 1.81 28.66 2.60 26.60 Q 2.80 26.08 3.35 25.97 C 22.79 22.24 43.01 21.47 62.74 21.53 A 0.90 0.88 76.2 0 1 63.53 22.02 C 69.02 32.92 69.04 47.92 68.70 59.50 Q 67.71 93.67 65.03 127.76 Q 63.66 145.22 62.86 175.99 C 61.63 223.63 99.99 180.15 108.09 169.23 Q 109.31 167.59 109.54 165.50 Q 115.29 113.25 116.08 76.76 Q 116.51 57.11 109.59 33.87 Q 109.43 33.33 109.95 33.10 C 125.68 26.22 143.69 22.95 160.69 21.34 Q 161.28 21.29 161.40 21.87 Q 165.39 41.13 163.87 62.23 C 161.44 96.19 156.77 128.71 153.36 162.00 C 152.39 171.49 150.86 183.54 153.14 191.00 C 159.15 210.57 182.99 184.15 188.71 177.21 Q 213.28 147.39 224.65 111.56 Q 227.27 103.30 228.26 91.97 Q 228.31 91.43 227.83 91.15 L 197.60 73.61 Q 197.13 73.33 197.18 72.78 Q 199.50 48.49 213.75 28.54 Q 215.58 25.98 222.12 21.67 Q 222.52 21.41 222.99 21.39 C 233.03 21.06 243.27 23.99 250.59 30.86 C 259.87 39.57 260.86 51.74 259.24 64.51 Q 257.39 79.14 252.98 93.23 Q 238.47 139.52 210.78 179.32 Q 196.42 199.96 177.41 216.41 C 163.78 228.22 138.11 244.24 121.09 229.39 C 111.18 220.74 108.63 211.12 107.40 198.38 Q 107.32 197.54 106.80 198.21 Z"
/><ellipse fill="currentColor" cx="0.00" cy="0.00" transform="translate(235.20,220.49) rotate(89.9)" rx="13.51" ry="12.46"/></svg>
