<?xml version="1.0" encoding="UTF-8" standalone="no"?>
<!DOCTYPE svg PUBLIC "-//W3C//DTD SVG 1.1//EN" "http://www.w3.org/Graphics/SVG/1.1/DTD/svg11.dtd">
<svg xmlns="http://www.w3.org/2000/svg" version="1.1" viewBox="0.00 0.00 180.00 180.00">
<g stroke-width="2.00" fill="none" stroke-linecap="butt">
<path stroke="#808080" vector-effect="non-scaling-stroke" d="
  M 77.23 132.86
  C 77.04 143.06 84.52 153.93 96.00 151.76
  C 107.02 149.68 117.23 140.31 124.56 131.56
  Q 146.44 105.42 155.49 72.47
  Q 158.06 63.10 158.08 55.75
  C 158.11 45.33 150.34 38.33 140.24 38.32
  C 130.89 38.31 125.56 58.46 124.84 65.38
  Q 124.79 65.91 125.25 66.18
  L 140.78 75.19
  Q 141.30 75.50 141.25 76.11
  Q 140.74 82.08 138.83 87.78
  Q 131.33 110.11 114.98 126.83
  Q 113.01 128.85 111.03 130.15
  C 97.95 138.72 100.92 119.63 101.48 114.27
  Q 103.85 91.37 106.34 68.49
  C 107.38 58.89 108.04 48.58 105.78 39.11
  A 0.96 0.95 81.1 0 0 104.78 38.37
  Q 91.52 39.37 79.11 44.06
  A 1.18 1.17 71.8 0 0 78.40 45.48
  C 80.68 53.67 81.73 61.64 81.42 70.61
  Q 80.68 92.14 78.25 113.60
  Q 77.99 115.87 76.72 117.58
  C 72.93 122.72 65.55 130.84 58.71 132.38
  A 1.47 1.44 -37.6 0 1 57.72 132.26
  Q 53.74 130.30 53.57 125.22
  C 52.96 107.04 54.76 88.64 55.96 70.50
  C 56.71 59.07 57.50 48.22 54.00 39.17
  A 1.11 1.09 79.8 0 0 53.01 38.47
  Q 37.65 37.98 22.50 40.48
  A 2.10 2.10 0.0 0 0 21.06 43.67
  C 23.77 47.99 27.87 52.98 29.14 57.90
  C 30.91 64.74 30.76 72.32 30.67 80.00
  Q 30.39 103.28 29.84 126.56
  C 29.63 135.38 30.48 142.30 36.70 147.80
  C 50.47 159.97 68.78 143.31 76.38 132.58
  A 0.47 0.47 0.0 0 1 77.23 132.86"
/>
<path stroke="#808080" vector-effect="non-scaling-stroke" d="
  M 144.9550 151.3500
  A 7.17 6.63 90.2 0 0 151.6100 144.2031
  A 7.17 6.63 90.2 0 0 145.0050 137.0100
  A 7.17 6.63 90.2 0 0 138.3500 144.1569
  A 7.17 6.63 90.2 0 0 144.9550 151.3500"
/>
</g>
<path fill="#000000" d="
  M 0.00 0.00
  L 180.00 0.00
  L 180.00 180.00
  L 0.00 180.00
  L 0.00 0.00
  Z
  M 77.23 132.86
  C 77.04 143.06 84.52 153.93 96.00 151.76
  C 107.02 149.68 117.23 140.31 124.56 131.56
  Q 146.44 105.42 155.49 72.47
  Q 158.06 63.10 158.08 55.75
  C 158.11 45.33 150.34 38.33 140.24 38.32
  C 130.89 38.31 125.56 58.46 124.84 65.38
  Q 124.79 65.91 125.25 66.18
  L 140.78 75.19
  Q 141.30 75.50 141.25 76.11
  Q 140.74 82.08 138.83 87.78
  Q 131.33 110.11 114.98 126.83
  Q 113.01 128.85 111.03 130.15
  C 97.95 138.72 100.92 119.63 101.48 114.27
  Q 103.85 91.37 106.34 68.49
  C 107.38 58.89 108.04 48.58 105.78 39.11
  A 0.96 0.95 81.1 0 0 104.78 38.37
  Q 91.52 39.37 79.11 44.06
  A 1.18 1.17 71.8 0 0 78.40 45.48
  C 80.68 53.67 81.73 61.64 81.42 70.61
  Q 80.68 92.14 78.25 113.60
  Q 77.99 115.87 76.72 117.58
  C 72.93 122.72 65.55 130.84 58.71 132.38
  A 1.47 1.44 -37.6 0 1 57.72 132.26
  Q 53.74 130.30 53.57 125.22
  C 52.96 107.04 54.76 88.64 55.96 70.50
  C 56.71 59.07 57.50 48.22 54.00 39.17
  A 1.11 1.09 79.8 0 0 53.01 38.47
  Q 37.65 37.98 22.50 40.48
  A 2.10 2.10 0.0 0 0 21.06 43.67
  C 23.77 47.99 27.87 52.98 29.14 57.90
  C 30.91 64.74 30.76 72.32 30.67 80.00
  Q 30.39 103.28 29.84 126.56
  C 29.63 135.38 30.48 142.30 36.70 147.80
  C 50.47 159.97 68.78 143.31 76.38 132.58
  A 0.47 0.47 0.0 0 1 77.23 132.86
  Z
  M 144.9550 151.3500
  A 7.17 6.63 90.2 0 0 151.6100 144.2031
  A 7.17 6.63 90.2 0 0 145.0050 137.0100
  A 7.17 6.63 90.2 0 0 138.3500 144.1569
  A 7.17 6.63 90.2 0 0 144.9550 151.3500
  Z"
/>
<path fill="#ffffff" d="
  M 77.23 132.86
  A 0.47 0.47 0.0 0 0 76.38 132.58
  C 68.78 143.31 50.47 159.97 36.70 147.80
  C 30.48 142.30 29.63 135.38 29.84 126.56
  Q 30.39 103.28 30.67 80.00
  C 30.76 72.32 30.91 64.74 29.14 57.90
  C 27.87 52.98 23.77 47.99 21.06 43.67
  A 2.10 2.10 0.0 0 1 22.50 40.48
  Q 37.65 37.98 53.01 38.47
  A 1.11 1.09 79.8 0 1 54.00 39.17
  C 57.50 48.22 56.71 59.07 55.96 70.50
  C 54.76 88.64 52.96 107.04 53.57 125.22
  Q 53.74 130.30 57.72 132.26
  A 1.47 1.44 -37.6 0 0 58.71 132.38
  C 65.55 130.84 72.93 122.72 76.72 117.58
  Q 77.99 115.87 78.25 113.60
  Q 80.68 92.14 81.42 70.61
  C 81.73 61.64 80.68 53.67 78.40 45.48
  A 1.18 1.17 71.8 0 1 79.11 44.06
  Q 91.52 39.37 104.78 38.37
  A 0.96 0.95 81.1 0 1 105.78 39.11
  C 108.04 48.58 107.38 58.89 106.34 68.49
  Q 103.85 91.37 101.48 114.27
  C 100.92 119.63 97.95 138.72 111.03 130.15
  Q 113.01 128.85 114.98 126.83
  Q 131.33 110.11 138.83 87.78
  Q 140.74 82.08 141.25 76.11
  Q 141.30 75.50 140.78 75.19
  L 125.25 66.18
  Q 124.79 65.91 124.84 65.38
  C 125.56 58.46 130.89 38.31 140.24 38.32
  C 150.34 38.33 158.11 45.33 158.08 55.75
  Q 158.06 63.10 155.49 72.47
  Q 146.44 105.42 124.56 131.56
  C 117.23 140.31 107.02 149.68 96.00 151.76
  C 84.52 153.93 77.04 143.06 77.23 132.86
  Z"
/>
<ellipse fill="#ffffff" cx="0.00" cy="0.00" transform="translate(144.98,144.18) rotate(90.2)" rx="7.17" ry="6.63"/>
</svg>
