<?xml version="1.0" encoding="UTF-8"?>
<svg version="1.1" xmlns="http://www.w3.org/2000/svg" width="500" height="500">
<path d="M0 0 C165 0 330 0 500 0 C500 165 500 330 500 500 C335 500 170 500 0 500 C0 335 0 170 0 0 Z " fill="#1A1A1A" transform="translate(0,0)"/>
<path d="M0 0 C8.09686271 16.32173907 8.49457207 33.41983387 8.3125 51.3125 C8.30176352 53.29622355 8.29110406 55.27994752 8.28051758 57.26367188 C8.09096646 82.19588709 6.46310919 106.97458515 4.37347412 131.80899048 C1.79435862 162.62069682 -0.22378941 193.51102457 -0.4375 224.4375 C-0.45555191 225.7278566 -0.45555191 225.7278566 -0.47396851 227.04428101 C-0.61182956 238.38441574 -0.46095602 249.55639686 6.25 259.25 C9.97796113 261.6223389 12.65244573 262.65623461 17 262 C27.64928306 258.22291438 35.88552671 251.6586816 44 244 C44.62084473 243.41621582 45.24168945 242.83243164 45.88134766 242.23095703 C47.85419411 240.35786402 49.8060868 238.46558394 51.75 236.5625 C52.33966553 235.99080078 52.92933105 235.41910156 53.53686523 234.83007812 C54.74418988 233.62024136 55.92149912 232.37992114 57.07177734 231.11572266 C59 229 59 229 61.35400391 226.78662109 C70.79191381 216.63253478 70.0599364 203.66360144 70.875 190.5 C71.06033243 187.97514173 71.24948824 185.45056133 71.44238281 182.92626953 C71.81991614 177.92238386 72.17735809 172.91775678 72.51660156 167.91113281 C72.92396602 161.96304056 73.39870735 156.02417223 73.9296875 150.0859375 C74.03670738 148.88807617 74.03670738 148.88807617 74.14588928 147.66601562 C74.28263536 146.13716105 74.41943839 144.60831157 74.55630493 143.07946777 C75.72871273 129.73614815 76.75014375 116.39539401 77 103 C77.0199704 101.94752075 77.0199704 101.94752075 77.04034424 100.8737793 C77.52758034 73.96932097 76.74207274 49.0063035 69.41137695 22.94091797 C69 21 69 21 69 17 C86.33201875 8.89129026 104.18610405 5.06452392 123 2 C123.72864258 1.87995605 124.45728516 1.75991211 125.20800781 1.63623047 C131.85376707 0.55754047 138.26431402 -0.26942744 145 0 C150.73001996 14.10986781 150.37555332 29.53579574 150.3125 44.5625 C150.31100952 45.450513 150.30951904 46.338526 150.3079834 47.25344849 C150.25697425 64.32381309 149.00877214 81.04217694 147 98 C146.84255557 99.36938514 146.68582824 100.7388529 146.52978516 102.10839844 C145.72279535 109.18579772 144.8926039 116.26009784 144.0390625 123.33203125 C142.96687783 132.21702957 141.94794726 141.10779714 140.9375 150 C140.60431929 152.92970488 140.27098134 155.85939182 139.9375 158.7890625 C139.8574472 159.49263382 139.77739441 160.19620514 139.69491577 160.9210968 C139.07595829 166.35311371 138.44281461 171.78340793 137.80615234 177.21337891 C137.3192301 181.38930142 136.84448887 185.56655505 136.37207031 189.74414062 C136.11324605 192.00902277 135.84918552 194.27331014 135.58105469 196.53710938 C134.05857806 209.43863822 132.7312014 222.24731051 132.6875 235.25 C132.68210205 236.20729004 132.6767041 237.16458008 132.67114258 238.15087891 C132.74822972 245.67324304 133.17503629 253.87600759 138 260 C140.86947813 262.23181633 144.07007492 262.54430204 147.66796875 262.4375 C165.22480873 259.14375448 180.82076451 239.28864827 191 226 C191.71494629 225.06704102 191.71494629 225.06704102 192.44433594 224.11523438 C201.65651896 211.99118782 209.50130999 199.2389764 217 186 C217.39026367 185.32404785 217.78052734 184.6480957 218.18261719 183.95166016 C232.19500513 159.6398442 242.95189793 132.15418996 244 104 C243.44876465 103.67427002 242.8975293 103.34854004 242.32958984 103.01293945 C241.54793457 102.55105225 240.7662793 102.08916504 239.9609375 101.61328125 C239.08010498 101.09306396 238.19927246 100.57284668 237.29174805 100.03686523 C235.33130427 98.87786177 233.37184595 97.71718997 231.41333008 96.55493164 C226.1892294 93.45800968 220.95145881 90.391155 215.67578125 87.3828125 C214.6717627 86.80490967 213.66774414 86.22700684 212.63330078 85.6315918 C210.69351544 84.51604642 208.74796829 83.41045143 206.79638672 82.31567383 C205.91869629 81.8080249 205.04100586 81.30037598 204.13671875 80.77734375 C203.36030029 80.33640381 202.58388184 79.89546387 201.78393555 79.44116211 C199.62644458 77.6982212 199.31376371 76.71784974 199 74 C200.45815093 48.93369109 211.28280748 21.98756555 229.359375 4.4375 C229.90078125 3.963125 230.4421875 3.48875 231 3 C231.56203125 2.45214844 232.1240625 1.90429688 232.703125 1.33984375 C236.03283073 -0.60248459 239.25049075 -0.48961098 243 -0.4375 C244.13622803 -0.42614014 244.13622803 -0.42614014 245.29541016 -0.41455078 C252.06294823 -0.21824489 257.81540131 1.19992076 264 4 C265.41732422 4.63615234 265.41732422 4.63615234 266.86328125 5.28515625 C278.79160514 11.20807226 285.589024 19.97024086 291 32 C295.53579874 46.94557353 291.69552027 65.95080558 289 81 C288.88253418 81.69416016 288.76506836 82.38832031 288.64404297 83.10351562 C286.95731792 93.03236004 284.20014689 102.47996503 281 112 C280.58041016 113.2684375 280.58041016 113.2684375 280.15234375 114.5625 C269.84455598 145.61973068 256.59018625 175.76778472 240 204 C239.48356934 204.88606934 238.96713867 205.77213867 238.43505859 206.68505859 C225.67019476 228.48626898 211.04378371 248.35836156 194 267 C193.13375 267.97066406 192.2675 268.94132812 191.375 269.94140625 C172.4521964 291.07526146 144.72838037 315.85913025 115.02685547 318.15234375 C100.60339185 318.82523685 91.86957579 315.80242761 81.01953125 306.2578125 C69.80315042 294.70776359 66.38901618 279.33999865 64 264 C63.41476563 264.80179687 62.82953125 265.60359375 62.2265625 266.4296875 C46.44485123 287.53717418 27.52385965 304.9125996 3 315 C2.15953125 315.36867188 1.3190625 315.73734375 0.453125 316.1171875 C-9.04891178 319.53671029 -23.95475065 319.99379879 -33.5 316.5625 C-48.73663406 308.89034327 -58.32085116 297.21516933 -63.93359375 281.36328125 C-66.6259098 272.95140382 -67.16781312 264.78761936 -67.125 256.015625 C-67.12234131 254.96433411 -67.11968262 253.91304321 -67.11694336 252.82989502 C-67.02592347 236.11075173 -66.58452605 219.39394486 -66.21653366 202.67918968 C-65.16987365 156.28142053 -65.16987365 156.28142053 -64.75 109.875 C-64.74500488 108.89333862 -64.74000977 107.91167725 -64.73486328 106.90026855 C-64.58333095 71.56444472 -68.72087517 48.90902579 -88.62426758 19.60888672 C-89.08341553 18.91166504 -89.54256348 18.21444336 -90.015625 17.49609375 C-90.40911133 16.90884521 -90.80259766 16.32159668 -91.20800781 15.71655273 C-92.63525449 12.62315834 -91.86753732 10.20321473 -91 7 C-85.30058964 4.73585068 -79.54522461 4.17619241 -73.5 3.5 C-72.38197998 3.37326904 -71.26395996 3.24653809 -70.11206055 3.1159668 C-67.81908959 2.85931399 -65.52570922 2.60629246 -63.23193359 2.35693359 C-60.41849824 2.0462188 -57.61004211 1.70914641 -54.80078125 1.36328125 C-36.6142742 -0.72322721 -18.27507832 -0.18476903 0 0 Z " fill="#FDFDFD" transform="translate(151,91)"/>
<path d="M0 0 C4.81852225 2.36380337 7.67076821 5.16236475 10 10 C10.80310147 14.95792237 10.65187206 19.43062811 8.3125 23.9375 C5.29204341 27.93756414 3.49981435 29.62018325 -1.51953125 30.3828125 C-6.62862152 30.70431476 -10.09856188 30.53177299 -14.125 27.1875 C-17.83658344 23.59134858 -18.19202435 20.22845489 -18.3125 15.1875 C-18.261959 9.95650638 -17.71912992 6.92016397 -14 3 C-9.79408994 -0.60506577 -5.30826969 -0.83469258 0 0 Z " fill="#F0F2F6" transform="translate(403,376)"/>
</svg>
