<svg xmlns="http://www.w3.org/2000/svg" width="500" height="500" viewBox="0 0 500 500" version="1.1"><path d="M 248.762 21.707 C 250.006 21.946, 251.806 21.937, 252.762 21.687 C 253.718 21.437, 252.700 21.241, 250.500 21.252 C 248.300 21.263, 247.518 21.468, 248.762 21.707 M 45.232 188 C 45.232 189.925, 45.438 190.713, 45.689 189.750 C 45.941 188.787, 45.941 187.213, 45.689 186.250 C 45.438 185.287, 45.232 186.075, 45.232 188 M 188.500 189.988 C 179.269 190.772, 174.596 192.557, 175.566 194.928 C 177.367 199.330, 179.940 209.760, 181.876 220.500 C 183.689 230.566, 184.156 238.222, 184.773 268 L 185.508 303.500 188.253 308.177 C 192.842 315.994, 195.210 317.286, 204 316.769 C 213.160 316.230, 219.343 313.367, 229.666 304.887 C 233.608 301.649, 237.095 299, 237.416 299 C 237.737 299, 238 300.045, 238 301.322 C 238 302.599, 238.731 305.790, 239.625 308.413 C 242.035 315.487, 245.351 317.225, 255.500 316.738 C 269.310 316.074, 277.979 310.749, 291.709 294.500 C 311.140 271.505, 322.474 249.691, 327.408 225.792 C 330.120 212.659, 329.251 204.358, 324.394 197.019 C 321.232 192.241, 316.375 190, 309.180 190 L 303.427 190 299.604 195.121 C 294.420 202.065, 291.889 208.135, 291.252 215.153 C 290.813 219.995, 291.053 221.408, 292.610 223.161 C 294.613 225.416, 303.995 230, 306.608 230 C 307.829 230, 308.016 230.691, 307.486 233.250 C 304.796 246.249, 294.977 268.067, 287.267 278.177 C 283.298 283.382, 276.015 288.898, 269.643 291.526 L 265.785 293.117 266.425 286.308 C 268.030 269.206, 268.983 244.273, 268.991 219.137 L 269 191.773 258.750 192.227 C 251.256 192.559, 247.241 193.244, 243.817 194.776 L 239.133 196.872 238.800 233.686 C 238.484 268.688, 238.361 270.761, 236.307 275.809 C 231.944 286.534, 226.690 291, 218.436 291 L 213.774 291 214.373 263.250 C 214.703 247.988, 215.227 228.075, 215.536 219 C 216.554 189.146, 215.226 187.721, 188.500 189.988 M 306.667 302.667 C 306.300 303.033, 306 305.744, 306 308.691 C 306 313.523, 306.252 314.145, 308.565 315.025 C 312.562 316.545, 317.134 316.192, 318.608 314.250 C 319.339 313.288, 319.951 310.419, 319.968 307.875 C 319.998 303.486, 319.841 303.218, 316.875 302.625 C 312.779 301.806, 307.506 301.827, 306.667 302.667 M 320.500 448.588 L 317.500 451.165 320.750 449.015 C 322.538 447.832, 324 446.669, 324 446.432 C 324 445.683, 323.577 445.944, 320.500 448.588 M 204 462.490 C 204 463.175, 210.123 466.210, 210.580 465.753 C 210.797 465.536, 209.406 464.610, 207.487 463.695 C 205.569 462.781, 204 462.239, 204 462.490" stroke="none" fill="#f2f4f5" fill-rule="evenodd"/><path d="M 236.439 23.532 C 233.105 24.264, 219.605 28.465, 206.439 32.868 C 193.273 37.270, 171.925 44.084, 159 48.009 C 146.075 51.934, 119.975 60.038, 101 66.017 C 82.025 71.997, 63.290 77.842, 59.366 79.007 C 51.749 81.268, 49.074 83.418, 46.937 89 C 45.158 93.644, 44.417 167.446, 45.902 192.048 C 49.279 248.026, 61.845 296.971, 83.629 339 C 118.847 406.947, 193.051 469.566, 246.543 476.479 C 261.778 478.448, 292.838 466.978, 318 450.092 C 350.270 428.436, 375.306 403.352, 397.941 370 C 425.246 329.767, 440.006 293.434, 449.941 242 C 455.346 214.018, 457.406 180.258, 456.724 130.820 C 456.189 91.986, 455.253 85.524, 449.677 82.150 C 447.929 81.093, 431.650 75.864, 413.500 70.531 C 395.350 65.197, 371.500 57.937, 360.500 54.397 C 349.500 50.857, 333.300 45.687, 324.500 42.907 C 315.700 40.126, 299.275 34.908, 288 31.311 C 276.725 27.713, 265.025 24.153, 262 23.400 C 255.216 21.712, 244.475 21.767, 236.439 23.532 M 188.500 189.988 C 179.269 190.772, 174.596 192.557, 175.566 194.928 C 177.367 199.330, 179.940 209.760, 181.876 220.500 C 183.689 230.566, 184.156 238.222, 184.773 268 L 185.508 303.500 188.253 308.177 C 192.842 315.994, 195.210 317.286, 204 316.769 C 213.160 316.230, 219.343 313.367, 229.666 304.887 C 233.608 301.649, 237.095 299, 237.416 299 C 237.737 299, 238 300.045, 238 301.322 C 238 302.599, 238.731 305.790, 239.625 308.413 C 242.035 315.487, 245.351 317.225, 255.500 316.738 C 269.310 316.074, 277.979 310.749, 291.709 294.500 C 311.140 271.505, 322.474 249.691, 327.408 225.792 C 330.120 212.659, 329.251 204.358, 324.394 197.019 C 321.232 192.241, 316.375 190, 309.180 190 L 303.427 190 299.604 195.121 C 294.420 202.065, 291.889 208.135, 291.252 215.153 C 290.813 219.995, 291.053 221.408, 292.610 223.161 C 294.613 225.416, 303.995 230, 306.608 230 C 307.829 230, 308.016 230.691, 307.486 233.250 C 304.796 246.249, 294.977 268.067, 287.267 278.177 C 283.298 283.382, 276.015 288.898, 269.643 291.526 L 265.785 293.117 266.425 286.308 C 268.030 269.206, 268.983 244.273, 268.991 219.137 L 269 191.773 258.750 192.227 C 251.256 192.559, 247.241 193.244, 243.817 194.776 L 239.133 196.872 238.800 233.686 C 238.484 268.688, 238.361 270.761, 236.307 275.809 C 231.944 286.534, 226.690 291, 218.436 291 L 213.774 291 214.373 263.250 C 214.703 247.988, 215.227 228.075, 215.536 219 C 216.554 189.146, 215.226 187.721, 188.500 189.988 M 306.667 302.667 C 306.300 303.033, 306 305.744, 306 308.691 C 306 313.523, 306.252 314.145, 308.565 315.025 C 312.562 316.545, 317.134 316.192, 318.608 314.250 C 319.339 313.288, 319.951 310.419, 319.968 307.875 C 319.998 303.486, 319.841 303.218, 316.875 302.625 C 312.779 301.806, 307.506 301.827, 306.667 302.667" stroke="none" fill="#0c7a99" fill-rule="evenodd"/></svg>